<?xml version="1.0" standalone="no"?>
<!DOCTYPE svg PUBLIC "-//W3C//DTD SVG 20010904//EN"
 "http://www.w3.org/TR/2001/REC-SVG-20010904/DTD/svg10.dtd">
<svg version="1.0" xmlns="http://www.w3.org/2000/svg"
 width="80.000000pt" height="80.000000pt" viewBox="0 0 80.000000 80.000000"
 preserveAspectRatio="xMidYMid meet">

<g transform="translate(0.000000,80.000000) scale(0.100000,-0.100000)"
fill="#094020" stroke="none">
<path d="M365 732 c-16 -11 -47 -37 -67 -60 l-38 -42 -49 12 c-78 18 -81 14
-81 -104 0 -87 4 -111 24 -153 37 -79 103 -129 214 -161 12 -3 19 -104 7 -104
-3 0 -28 11 -55 25 -61 31 -90 32 -90 5 0 -15 21 -30 82 -61 l82 -41 88 43
c62 30 88 48 88 61 0 25 -22 23 -80 -7 -27 -14 -54 -25 -60 -25 -15 0 -13 100
3 104 110 32 176 82 213 161 20 42 24 66 24 153 0 118 -3 122 -81 104 l-49
-12 -42 46 c-34 37 -84 74 -100 74 -2 0 -16 -8 -33 -18z m87 -79 c21 -20 38
-40 38 -44 0 -4 -13 -20 -28 -36 -15 -15 -36 -39 -45 -53 l-17 -24 -17 24 c-9
14 -30 38 -45 53 -15 16 -28 31 -28 35 0 13 75 82 89 82 8 0 32 -17 53 -37z
m-189 -85 c72 -36 117 -130 117 -243 0 -39 -3 -45 -20 -45 -51 0 -129 60 -161
123 -21 39 -36 153 -25 182 7 18 27 15 89 -17z m364 -46 c-5 -87 -27 -140 -74
-183 -34 -33 -85 -59 -113 -59 -17 0 -20 6 -20 45 0 123 46 210 133 251 80 37
81 36 74 -54z"/>
</g>
</svg>
