<?xml version="1.0" standalone="no"?>
<!DOCTYPE svg PUBLIC "-//W3C//DTD SVG 20010904//EN"
 "http://www.w3.org/TR/2001/REC-SVG-20010904/DTD/svg10.dtd">
<svg version="1.0" xmlns="http://www.w3.org/2000/svg"
 width="80.000000pt" height="80.000000pt" viewBox="0 0 80.000000 80.000000"
 preserveAspectRatio="xMidYMid meet">

<g transform="translate(0.000000,80.000000) scale(0.100000,-0.100000)"
fill="#094020" stroke="none">
<path d="M367 699 c-80 -27 -123 -56 -184 -123 -73 -79 -95 -143 -101 -281 -7
-187 18 -215 193 -215 153 0 247 39 342 144 73 79 95 143 101 281 7 187 -18
215 -195 215 -71 -1 -114 -6 -156 -21z m275 -41 c10 -5 20 -19 22 -31 11 -55
16 -107 9 -107 -10 0 -153 143 -153 153 0 9 98 -2 122 -15z m-83 -102 l114
-114 -17 -54 c-39 -121 -139 -219 -252 -247 l-48 -12 -114 114 -115 115 17 54
c37 115 120 201 231 240 28 10 55 17 60 18 6 0 62 -51 124 -114z m-351 -349
c39 -40 72 -76 72 -80 0 -8 -73 -1 -113 10 -9 2 -21 12 -26 21 -12 24 -23 122
-14 122 5 0 41 -33 81 -73z"/>
<path d="M460 495 c-22 -24 -25 -24 -42 -8 -14 13 -21 14 -30 5 -10 -10 -10
-17 1 -34 11 -18 10 -23 -7 -40 -17 -17 -22 -18 -40 -7 -17 11 -24 11 -34 1
-9 -9 -8 -16 5 -30 16 -17 16 -20 -8 -42 -30 -28 -33 -60 -7 -60 10 0 29 11
42 25 22 24 25 24 42 8 14 -13 21 -14 30 -5 10 10 10 17 -1 34 -11 18 -10 23
7 40 17 17 22 18 40 7 17 -11 24 -11 34 -1 9 9 8 16 -5 30 -16 17 -16 20 8 42
14 13 25 32 25 42 0 26 -32 23 -60 -7z"/>
</g>
</svg>
