<?xml version="1.0" standalone="no"?>
<!DOCTYPE svg PUBLIC "-//W3C//DTD SVG 20010904//EN"
 "http://www.w3.org/TR/2001/REC-SVG-20010904/DTD/svg10.dtd">
<svg version="1.0" xmlns="http://www.w3.org/2000/svg"
 width="80.000000pt" height="80.000000pt" viewBox="0 0 80.000000 80.000000"
 preserveAspectRatio="xMidYMid meet">

<g transform="translate(0.000000,80.000000) scale(0.100000,-0.100000)"
fill="#000000" stroke="none">
<path d="M165 704 c-69 -36 -66 -19 -63 -323 3 -268 4 -276 23 -276 18 0 20 8
23 83 l3 83 34 15 c55 23 91 17 198 -31 55 -25 119 -48 143 -52 46 -6 104 9
147 39 l27 19 0 200 c0 224 -1 228 -66 188 -57 -35 -110 -29 -229 25 -111 51
-183 60 -240 30z m231 -80 c106 -46 172 -56 228 -34 l26 10 0 -161 0 -160 -35
-15 c-55 -23 -91 -17 -199 32 -105 49 -174 60 -238 40 l-28 -8 0 155 c0 167 1
170 57 187 40 12 74 4 189 -46z"/>
</g>
</svg>
