<?xml version="1.0" standalone="no"?>
<!DOCTYPE svg PUBLIC "-//W3C//DTD SVG 20010904//EN"
 "http://www.w3.org/TR/2001/REC-SVG-20010904/DTD/svg10.dtd">
<svg version="1.0" xmlns="http://www.w3.org/2000/svg"
 width="96.000000pt" height="96.000000pt" viewBox="0 0 96.000000 96.000000"
 preserveAspectRatio="xMidYMid meet">

<g transform="translate(0.000000,96.000000) scale(0.100000,-0.100000)"
fill="#000000" stroke="none">
<path d="M590 887 c-55 -20 -60 -24 -224 -183 l-156 -151 0 -148 0 -148 -60
-63 c-64 -66 -68 -75 -46 -93 19 -16 39 -5 101 58 l49 51 150 0 150 0 153 158
c84 86 160 173 170 192 26 51 23 153 -5 206 -54 105 -179 158 -282 121z m143
-63 c97 -49 133 -153 87 -244 l-20 -40 -107 0 -106 0 66 69 c37 38 67 73 67
78 0 12 -21 33 -34 33 -5 0 -60 -50 -123 -112 l-113 -112 0 105 0 105 53 51
c28 28 66 58 82 66 39 21 108 21 148 1z m-403 -448 l-60 -61 0 105 0 104 58
59 57 58 3 -103 3 -102 -61 -60z m300 -1 l-105 -105 -105 0 -105 0 105 105
105 105 105 0 105 0 -105 -105z"/>
</g>
</svg>
